<?xml version="1.0" standalone="no"?><!DOCTYPE svg PUBLIC "-//W3C//DTD SVG 1.1//EN" "http://www.w3.org/Graphics/SVG/1.1/DTD/svg11.dtd"><svg t="1628830248913" class="icon" viewBox="0 0 1024 1024" version="1.1" xmlns="http://www.w3.org/2000/svg" p-id="2285" width="60" height="60" xmlns:xlink="http://www.w3.org/1999/xlink"><defs><style type="text/css"></style></defs><path d="M186.933995 174.844144c-35.804461 0-64.793702 28.988218-64.793702 64.790632 0 35.752272 28.990265 64.757886 64.793702 64.757886 35.768645 0 64.75584-29.005614 64.75584-64.757886C251.689834 203.832362 222.69957 174.844144 186.933995 174.844144L186.933995 174.844144zM345.103364 196.98235c-17.249873 0-31.41243 14.144138-31.41243 31.431873l0 22.413476c0 17.246803 14.162558 31.391964 31.41243 31.391964l529.092283 0c17.268292 0 31.413454-14.145162 31.413454-31.391964l0-22.413476c0-17.289782-14.145162-31.431873-31.413454-31.431873L345.103364 196.98235 345.103364 196.98235zM186.933995 447.225741c-35.804461 0-64.793702 28.988218-64.793702 64.774259 0 35.767622 28.990265 64.776306 64.793702 64.776306 35.768645 0 64.75584-29.008684 64.75584-64.776306C251.689834 476.213959 222.69957 447.225741 186.933995 447.225741L186.933995 447.225741zM313.690934 523.18883c0 17.268292 14.162558 31.414477 31.41243 31.414477l529.092283 0c17.268292 0 31.413454-14.146185 31.413454-31.414477l0-22.414499c0-17.265222-14.145162-31.410384-31.413454-31.410384L345.103364 469.363947c-17.249873 0-31.41243 14.145162-31.41243 31.410384L313.690934 523.18883 313.690934 523.18883zM186.933995 719.586872c-35.804461 0-64.793702 28.970822-64.793702 64.776306 0 35.767622 28.990265 64.791655 64.793702 64.791655 35.768645 0 64.75584-29.024034 64.75584-64.791655C251.689834 748.557694 222.69957 719.586872 186.933995 719.586872L186.933995 719.586872zM313.690934 795.569404c0 17.247826 14.162558 31.414477 31.41243 31.414477l529.092283 0c17.268292 0 31.413454-14.164604 31.413454-31.414477l0-22.430872c0-17.268292-14.145162-31.416524-31.413454-31.416524L345.103364 741.722008c-17.249873 0-31.41243 14.148231-31.41243 31.416524L313.690934 795.569404 313.690934 795.569404z" p-id="2286"></path></svg>