<?xml version="1.0" standalone="no"?><!DOCTYPE svg PUBLIC "-//W3C//DTD SVG 1.1//EN" "http://www.w3.org/Graphics/SVG/1.1/DTD/svg11.dtd"><svg t="1628836210311" class="icon" viewBox="0 0 1024 1024" version="1.1" xmlns="http://www.w3.org/2000/svg" p-id="19437" width="32" height="32" xmlns:xlink="http://www.w3.org/1999/xlink"><defs><style type="text/css"></style></defs><path d="M512 1024C230.4 1024 0 793.6 0 512S230.4 0 512 0s512 230.4 512 512-230.4 512-512 512z m0-984.615385C252.061538 39.384615 39.384615 252.061538 39.384615 512s212.676923 472.615385 472.615385 472.615385 472.615385-212.676923 472.615385-472.615385S771.938462 39.384615 512 39.384615z" fill="#DDDDDD" p-id="19438"></path><path d="M492.307692 691.2V256h39.384616v435.2l169.353846-169.353846 27.569231 27.569231-200.861539 202.830769c-3.938462 3.938462-7.876923 5.907692-13.784615 5.907692s-11.815385-1.969231-13.784616-5.907692L295.384615 549.415385l27.569231-27.569231 169.353846 169.353846z" fill="#30AFFE" p-id="19439"></path></svg>