<?xml version="1.0" standalone="no"?><!DOCTYPE svg PUBLIC "-//W3C//DTD SVG 1.1//EN" "http://www.w3.org/Graphics/SVG/1.1/DTD/svg11.dtd"><svg t="1628780034413" class="icon" viewBox="0 0 1024 1024" version="1.1" xmlns="http://www.w3.org/2000/svg" p-id="22733" width="32" height="32" xmlns:xlink="http://www.w3.org/1999/xlink"><defs><style type="text/css"></style></defs><path d="M117.2992 367.67744H39.74656c-17.98656 0-32.59904-15.73376-32.59904-35.11808 0-19.39968 14.61248-35.11808 32.59904-35.11808H117.2992c18.00704 0 32.57344 15.7184 32.57344 35.11808 0 19.38432-14.5664 35.11808-32.57344 35.11808z m427.99616 360.00256H163.36896c-18.03264 0-32.59904-15.75936-32.59904-35.15392 0-19.39968 14.5664-35.1232 32.59904-35.1232h381.9264a236.99456 236.99456 0 0 0 120.58624-31.1296c47.19616-27.86816 78.22336-52.03456 78.22336-128.83968a137.00096 137.00096 0 0 0-30.40256-96.98816 101.4272 101.4272 0 0 0-68.67456-29.73184H215.73632c-17.98656 0-32.59904-15.7184-32.59904-35.11808s14.61248-35.1488 32.59904-35.1488h428.66688c42.74176 0.73728 83.64544 18.5088 114.89792 49.89952 34.93376 39.54176 53.05856 92.87168 50.20672 147.3024 0 124.11904-70.1696 165.58592-112.10752 190.44864a298.31168 298.31168 0 0 1-152.10496 39.58272z" fill="#2AEEF8" p-id="22734"></path><path d="M617.53344 883.94752H471.94624c-19.51744 0-35.3024-15.16032-35.3024-33.88416 0-18.69312 15.78496-33.85344 35.3024-33.85344h145.5872c118.7584 0 320.31744-74.5472 321.95072-353.39776 4.82816-82.04288-34.18624-160.74752-103.48544-208.90624a266.28096 266.28096 0 0 0-152.17152-45.14816H243.11296c-19.51232 0-35.3024-15.16032-35.3024-33.88928 0-18.69312 15.78496-33.85344 35.3024-33.85344h440.71936a337.2032 337.2032 0 0 1 193.33632 57.33376c88.33024 61.06112 138.37312 160.97792 132.88448 265.32352-1.63328 288.62976-204.60544 420.2752-392.51968 420.2752z m-255.21664 0.21504h-75.4688c-19.5072 0-35.3024-15.15008-35.3024-33.87392 0-18.69312 15.7952-33.85344 35.3024-33.85344h75.46368c19.51744 0 35.31264 15.16032 35.31264 33.85344 0.00512 18.72384-15.7952 33.87392-35.30752 33.87392z" fill="#2AEEF8" p-id="22735"></path></svg>