<?xml version="1.0" standalone="no"?><!DOCTYPE svg PUBLIC "-//W3C//DTD SVG 1.1//EN" "http://www.w3.org/Graphics/SVG/1.1/DTD/svg11.dtd"><svg t="1628741515320" class="icon" viewBox="0 0 1024 1024" version="1.1" xmlns="http://www.w3.org/2000/svg" p-id="12385" width="32" height="32" xmlns:xlink="http://www.w3.org/1999/xlink"><defs><style type="text/css"></style></defs><path d="M832 234.666667H320c-46.933333 0-85.333333 38.4-85.333333 85.333333v341.333333c0 46.933333 38.4 85.333333 85.333333 85.333334h170.666667l-21.333334 106.666666h-74.666666c-17.066667 0-32 14.933333-32 32s14.933333 32 32 32h362.666666c17.066667 0 32-14.933333 32-32s-14.933333-32-32-32H682.666667l-21.333334-106.666666h170.666667c46.933333 0 85.333333-38.4 85.333333-85.333334V320c0-46.933333-38.4-85.333333-85.333333-85.333333z m-170.666667 384h-189.866666c-49.066667 0-87.466667-38.4-87.466667-87.466667s38.4-87.466667 87.466667-87.466667c0-57.6 46.933333-104.533333 104.533333-104.533333 46.933333 0 85.333333 29.866667 98.133333 70.4 51.2 6.4 91.733333 51.2 91.733334 104.533333 0 57.6-46.933333 104.533333-104.533334 104.533334zM106.666667 469.333333h64v-64H106.666667v64z m0 106.666667s0 2.133333 0 0c0 42.666667 64 40.533333 64 0v-42.666667H106.666667v42.666667z m0-234.666667h64v-64H106.666667v64zM727.466667 106.666667s-2.133333 0 0 0H682.666667v64h42.666666c40.533333 0 42.666667-64 2.133334-64zM426.666667 170.666667h64V106.666667h-64v64z m128 0h64V106.666667h-64v64zM106.666667 192v21.333333h64V192c0-12.8 8.533333-21.333333 21.333333-21.333333h42.666667V106.666667H192C145.066667 106.666667 106.666667 145.066667 106.666667 192z m192-21.333333h64V106.666667h-64v64z" p-id="12386" fill="#8a8a8a"></path></svg>