<?xml version="1.0" standalone="no"?><!DOCTYPE svg PUBLIC "-//W3C//DTD SVG 1.1//EN" "http://www.w3.org/Graphics/SVG/1.1/DTD/svg11.dtd"><svg t="1628742598181" class="icon" viewBox="0 0 1140 1024" version="1.1" xmlns="http://www.w3.org/2000/svg" p-id="34074" width="35.625" height="32" xmlns:xlink="http://www.w3.org/1999/xlink"><defs><style type="text/css"></style></defs><path d="M1039.3635587 461.36034807l-185.11402451-320.50412373C838.17854143 113.01815152 798.71074843 90.125 766.56876289 90.125H396.34071306c-32.05041229 0-71.60977853 22.89315152-87.68077048 50.63965193l-185.11402532 320.50412373c-16.11677857 27.83807282-16.11677857 73.25808535-2e-8 101.27930301l185.11402534 320.50412458c16.07099277 27.83807282 55.53878576 50.63965193 87.68077048 50.63965191h370.22804983c32.05041229 0 71.56399193-22.89315152 87.6807713-50.63965191l185.11402451-320.50412458c16.11677857-27.7922862 16.11677857-73.30387197 0-101.1877306zM541.43750924 267.40956668a38.18577667 38.18577667 0 1 1 76.32576754 0v228.06157763a38.18577667 38.18577667 0 1 1-76.32576754 0zM579.6232859 754.02639984A258.73840118 258.73840118 0 0 1 425.27765737 287.78447217a33.92765057 33.92765057 0 1 1 40.52087869 54.43991428 190.88309921 190.88309921 0 1 0 304.66206244 153.24675786A191.79882505 191.79882505 0 0 0 692.94438705 341.94966919a33.92765057 33.92765057 0 0 1 40.10880157-54.94356464 258.78418699 258.78418699 0 0 1-153.42990271 467.02029529z" fill="#68BD45" p-id="34075"></path></svg>