<?xml version="1.0" standalone="no"?><!DOCTYPE svg PUBLIC "-//W3C//DTD SVG 1.1//EN" "http://www.w3.org/Graphics/SVG/1.1/DTD/svg11.dtd"><svg t="1628835927043" class="icon" viewBox="0 0 1024 1024" version="1.1" xmlns="http://www.w3.org/2000/svg" p-id="14495" width="32" height="32" xmlns:xlink="http://www.w3.org/1999/xlink"><defs><style type="text/css"></style></defs><path d="M512.89599969 32.00000001C247.51999998 32.00000001 32.00000001 246.11199971 32.00000001 512c0 265.88800029 215.52 479.99999999 480.89599968 479.99999999S991.99999999 777.88800029 991.99999999 512c0-265.88800029-213.72799968-479.99999999-479.1040003-479.99999999z m-80.9599997 598.08c-25.21600031 0-46.848-5.40799969-72.0640003-10.7839997l-72.06399932 36.03199969 21.63199959-63.04000031c-52.25599969-36.06400031-82.87999969-82.87999969-82.87999965-140.54399999 0-99.072 93.66400031-176.544 207.16800001-176.54400003 102.68800033 0 190.944 61.24800002 208.95999937 145.92000002-7.2 0-12.60799969-1.79200031-19.80799969-1.79199938-99.072 0-176.544 73.8559997-176.54400001 163.93599938 0 14.40000002 1.79200031 28.8 7.20000001 43.19999997-7.2 3.6160003-14.40000002 3.6160003-21.60000001 3.61600035zM738.176 704.00000001l16.224 52.224-55.84000031-32.41600032c-21.63199968 5.40799969-41.44000031 10.81600032-63.03999938 10.81600029-99.10399967 0-176.57599969-66.65599969-176.57600063-149.53600025s77.472-151.32799969 176.544-151.32799973c93.696 0 176.544 66.65599969 176.54400001 151.32799967 0 45.02400001-30.62399999 86.46400033-73.85599969 118.91200034z" fill="#4EC73D" p-id="14496"></path><path d="M334.65600029 390.49599969c0 16.224 12.60799969 28.8 28.80000002 28.8a28.48000033 28.48000033 0 0 0 28.83199967-28.8 28.48000033 28.48000033 0 0 0-28.79999997-28.79999996 28.48000033 28.48000033 0 0 0-28.83199972 28.79999996z m223.35999941 151.32800062c0 12.60799969 10.81600032 23.42399998 23.42399999 23.424a23.83999969 23.83999969 0 0 0 23.424-23.424 23.83999969 23.83999969 0 0 0-23.424-23.424c-12.60799969-1.79200031-23.39200033 8.99200028-23.39199938 23.424z m-77.43999939-151.32800062c0 16.224 12.60799969 28.8 28.8 28.8a28.48000033 28.48000033 0 0 0 28.83199969-28.8 28.48000033 28.48000033 0 0 0-28.79999998-28.79999996 28.48000033 28.48000033 0 0 0-28.83199971 28.79999996z m192.73599938 151.32800062c0 12.60799969 10.81600032 23.42399998 23.424 23.424a23.83999969 23.83999969 0 0 0 23.424-23.424 23.83999969 23.83999969 0 0 0-23.424-23.424c-12.60799969-1.79200031-23.42399998 9.02399999-23.424 23.424z" fill="#46BB36" p-id="14497"></path></svg>