<?xml version="1.0" standalone="no"?><!DOCTYPE svg PUBLIC "-//W3C//DTD SVG 1.1//EN" "http://www.w3.org/Graphics/SVG/1.1/DTD/svg11.dtd"><svg t="1628742768240" class="icon" viewBox="0 0 1024 1024" version="1.1" xmlns="http://www.w3.org/2000/svg" p-id="39030" width="32" height="32" xmlns:xlink="http://www.w3.org/1999/xlink"><defs><style type="text/css"></style></defs><path d="M730.453333 513.749333l192-193.792a42.666667 42.666667 0 0 0 0-60.245333l-160.512-162.133333a41.984 41.984 0 0 0-59.733333 0l-192 193.792-191.189333-192.725334a42.453333 42.453333 0 0 0-60.416 0L102.4 256.426667a43.349333 43.349333 0 0 0 0 60.928l191.232 192.896L101.333333 704a42.666667 42.666667 0 0 0 0 60.245333l160.512 162.133334a41.984 41.984 0 0 0 59.733334 0l192-193.792 191.189333 192.896a42.666667 42.666667 0 0 0 30.208 12.8h2.389333l148.138667-8.533334a42.666667 42.666667 0 0 0 40.277333-40.618666l8.234667-149.333334a43.264 43.264 0 0 0-12.416-32.853333z m-123.733333-259.370666l55.466667 56.021333 29.866666-30.122667-55.466666-56.021333 33.493333-33.792 70.442667 71.082667 29.866666-30.122667L699.733333 160.384 732.16 128l160.512 162.133333-192 193.792-160.554667-162.133333zM291.712 896l-160.512-162.133333 32.213333-32.512 70.442667 71.082666 29.866667-30.122666-70.442667-70.784L237.312 627.2l44.970667 45.354667 29.866666-30.122667-45.013333-45.44 56.106667-56.618667 160.512 162.133334z m591.488-8.96l-148.522667 8.192L132.266667 286.549333l156.416-157.866666a0.384 0.384 0 0 1 0.341333 0h0.341333l602.581334 608.469333z" fill="#8a8a8a" p-id="39031"></path></svg>