<?xml version="1.0" standalone="no"?><!DOCTYPE svg PUBLIC "-//W3C//DTD SVG 1.1//EN" "http://www.w3.org/Graphics/SVG/1.1/DTD/svg11.dtd"><svg t="1628835978548" class="icon" viewBox="0 0 1024 1024" version="1.1" xmlns="http://www.w3.org/2000/svg" p-id="15135" width="32" height="32" xmlns:xlink="http://www.w3.org/1999/xlink"><defs><style type="text/css"></style></defs><path d="M186.837333 510.549333c50.048 58.026667 160.810667 144.213333 238.72 189.610667l11.434667 6.528 11.008 6.058667v165.12a21.333333 21.333333 0 0 1-42.325333 3.84l-0.341334-3.84V737.706667c-81.92-47.530667-197.12-137.088-250.837333-199.381334a21.333333 21.333333 0 1 1 32.341333-27.818666z m680.405334-2.261333a21.333333 21.333333 0 0 1 2.261333 30.08c-53.717333 62.293333-168.96 151.850667-250.837333 199.381333v140.117334a21.333333 21.333333 0 0 1-42.666667 0v-165.12l11.008-6.058667c78.122667-43.264 197.589333-135.168 250.154667-196.138667a21.333333 21.333333 0 0 1 30.08-2.261333zM661.333333 128a170.666667 170.666667 0 0 1 170.666667 170.666667c0 101.546667-106.666667 215.381333-320.042667 341.333333-213.333333-127.146667-319.957333-240.938667-319.957333-341.333333a170.666667 170.666667 0 0 1 320.042667-82.56A170.282667 170.282667 0 0 1 661.333333 128z" p-id="15136" fill="#d81e06"></path></svg>