<?xml version="1.0" standalone="no"?><!DOCTYPE svg PUBLIC "-//W3C//DTD SVG 1.1//EN" "http://www.w3.org/Graphics/SVG/1.1/DTD/svg11.dtd"><svg t="1628743402040" class="icon" viewBox="0 0 1024 1024" version="1.1" xmlns="http://www.w3.org/2000/svg" p-id="57300" width="32" height="32" xmlns:xlink="http://www.w3.org/1999/xlink"><defs><style type="text/css"></style></defs><path d="M974.336 911.36H47.616c-20.48 0-38.4 17.92-38.4 38.4s17.92 38.4 38.4 38.4h926.72c20.48 0 38.4-17.92 38.4-38.4 0-19.968-17.92-38.4-38.4-38.4z m-491.52-164.352c7.68 7.68 17.92 10.24 28.16 10.24s20.48-2.56 28.16-10.24l257.536-257.536c15.36-15.36 15.36-38.4 0-54.272-15.36-15.36-38.4-15.36-54.272 0l-190.464 190.464V75.264c0-20.48-17.92-38.4-38.4-38.4s-40.96 17.92-40.96 38.4v550.912L282.112 435.2c-15.36-15.36-38.4-15.36-54.272 0-15.36 15.36-15.36 38.4 0 54.272l254.976 257.536z m0 0" p-id="57301"></path></svg>