<?xml version="1.0" standalone="no"?><!DOCTYPE svg PUBLIC "-//W3C//DTD SVG 1.1//EN" "http://www.w3.org/Graphics/SVG/1.1/DTD/svg11.dtd"><svg t="1628933141432" class="icon" viewBox="0 0 1024 1024" version="1.1" xmlns="http://www.w3.org/2000/svg" p-id="20638" width="32" height="32" xmlns:xlink="http://www.w3.org/1999/xlink"><defs><style type="text/css"></style></defs><path d="M477.866667 955.733333c-266.24 0-477.866667-211.626667-477.866667-477.866666s211.626667-477.866667 477.866667-477.866667 477.866667 211.626667 477.866666 477.866667-211.626667 477.866667-477.866666 477.866666z m0-266.24c150.186667 0 273.066667-122.88 273.066666-273.066666S628.053333 136.533333 477.866667 136.533333 204.8 259.413333 204.8 409.6s122.88 279.893333 273.066667 279.893333z m0-102.4c-95.573333 0-170.666667-75.093333-170.666667-170.666666S382.293333 238.933333 477.866667 238.933333 648.533333 314.026667 648.533333 409.6 573.44 587.093333 477.866667 587.093333z m-109.226667 177.493334c-27.306667 0-47.786667 20.48-47.786667 47.786666 0 27.306667 20.48 47.786667 47.786667 47.786667h225.28c27.306667 0 47.786667-20.48 47.786667-47.786667 0-27.306667-20.48-47.786667-47.786667-47.786666H368.64z" fill="#353E53" p-id="20639"></path></svg>