<?xml version="1.0" standalone="no"?><!DOCTYPE svg PUBLIC "-//W3C//DTD SVG 1.1//EN" "http://www.w3.org/Graphics/SVG/1.1/DTD/svg11.dtd"><svg t="1628743036160" class="icon" viewBox="0 0 1024 1024" version="1.1" xmlns="http://www.w3.org/2000/svg" p-id="46951" width="32" height="32" xmlns:xlink="http://www.w3.org/1999/xlink"><defs><style type="text/css"></style></defs><path d="M757.312 133.952l5.824 11.712 78.016 184.448h-41.536l-73.856-149.76H324.224l-20.032 35.776-168.256 300.8 187.776 326.336h381.696l127.104-253.824-346.56 1.92c-11.712 0-24.768-13.888-24.768-23.296 0-4.416 3.072-10.368 7.872-15.04 5.184-5.056 11.648-8.256 17.152-8.256l71.04 0.96v-1.28l353.792-1.024-16.96 33.984-157.12 312.704H294.784l-7.232-12.736-206.976-359.488 6.528-11.456 201.28-361.216 6.144-11.328h462.784zM800.64 64H253.056l-26.048 47.744-200.96 360.704L0 517.888l26.048 45.504 200.96 348.864L254.08 960h526.272l26.048-52.416 150.208-298.752L1024 473.408h-152.512l-384.192 1.408h-1.28c-49.472 0-94.784 44.352-94.784 93.248s45.248 93.248 94.72 93.248h1.344l231.68-1.28-56.768 113.344h-297.984l-147.84-256.896 148.864-266.176h317.056l73.92 149.76h190.528l-120-283.584L800.64 64z" p-id="46952" fill="#0ec439"></path></svg>