<?xml version="1.0" standalone="no"?><!DOCTYPE svg PUBLIC "-//W3C//DTD SVG 1.1//EN" "http://www.w3.org/Graphics/SVG/1.1/DTD/svg11.dtd"><svg t="1628779699076" class="icon" viewBox="0 0 1024 1024" version="1.1" xmlns="http://www.w3.org/2000/svg" p-id="18522" width="32" height="32" xmlns:xlink="http://www.w3.org/1999/xlink"><defs><style type="text/css"></style></defs><path d="M510.778514 0L90.207086 133.610057 92.342857 653.824l0.468114 5.632c0.760686 3.423086 16.954514 86.074514 97.865143 165.697829 62.215314 61.352229 214.805943 141.524114 279.917715 175.740342 10.24 5.397943 17.876114 9.362286 22.235428 11.812572l15.469714 8.389486 18.987886-9.640229c38.048914-18.673371 231.6288-115.368229 303.542857-186.207086 81.013029-79.681829 97.199543-162.311314 97.887086-165.756343l2.633143-525.845942L510.778514 0z m353.777372 650.24c-3.050057 12.141714-20.472686 72.016457-79.484343 130.128457-59.969829 59.136-227.927771 145.0496-275.6608 168.864914-2.523429-1.287314-5.258971-2.677029-8.133486-4.227657-57.248914-30.069029-209.239771-109.904457-264.704-164.637257-59.172571-58.185143-76.478171-117.979429-79.528228-130.121143l-1.938286-470.513371L510.778514 66.7136l355.679086 113.020343-1.901714 470.513371zM694.389029 469.430857H560.581486l32.475428-258.413714-263.460571 337.92h133.807543l-32.475429 258.399086 263.460572-337.898058z" p-id="18523" fill="#1296db"></path></svg>