<?xml version="1.0" standalone="no"?><!DOCTYPE svg PUBLIC "-//W3C//DTD SVG 1.1//EN" "http://www.w3.org/Graphics/SVG/1.1/DTD/svg11.dtd"><svg t="1628742535267" class="icon" viewBox="0 0 1024 1024" version="1.1" xmlns="http://www.w3.org/2000/svg" p-id="32952" width="32" height="32" xmlns:xlink="http://www.w3.org/1999/xlink"><defs><style type="text/css"></style></defs><path d="M342.016 726.289067a21.026133 21.026133 0 0 1-29.252267 2.9696 20.206933 20.206933 0 0 1-3.072-28.7744 21.026133 21.026133 0 0 1 29.252267-3.003734 20.3776 20.3776 0 0 1 3.072 28.808534z m330.4448-71.68c-60.245333 78.677333-188.484267 52.189867-270.5408 55.944533 0 0-14.574933 0.8192-29.2864 3.1744 0 0 5.597867-2.286933 12.629333-4.7104 57.617067-19.626667 84.8896-23.552 120.354134-41.3696 65.877333-33.1776 131.515733-105.472 144.861866-180.667733-25.3952 72.362667-101.717333 134.485333-171.246933 159.778133-47.547733 17.2032-133.597867 34.030933-133.597867 34.030933l-3.515733-1.774933c-58.299733-27.989333-60.177067-152.917333 46.08-192.8192 46.592-17.578667 91.170133-7.8848 141.5168-19.694933 53.725867-12.731733 115.9168-52.189867 141.243733-103.970134 28.330667 82.705067 62.395733 212.036267 1.297067 292.386134l0.2048-0.341334z" fill="#6DB33F" p-id="32953"></path><path d="M792.849067 853.333333H258.048c-134.997333 0.1024-247.1936-102.229333-257.297067-234.5984-10.069333-132.369067 85.367467-249.9584 218.897067-269.653333 33.28-45.397333 74.888533-96.324267 135.2704-131.140267 126.293333-72.635733 285.0816-60.757333 398.677333 29.9008l0.682667 0.580267a497.152 497.152 0 0 1 75.6736 79.701333c19.319467 24.200533 33.928533 51.712 43.008 81.169067 0.6144 2.116267 1.1264 3.310933 1.365333 4.096 1.297067 0.6144 3.584 1.570133 5.393067 2.3552l6.929067 2.9696a235.076267 235.076267 0 0 1 87.927466 68.266667c54.272 68.266667 64.170667 160.9728 25.6 238.865066S881.220267 853.230933 793.122133 853.333333h-0.273066z m-260.778667-631.671466a303.445333 303.445333 0 0 0-151.005867 40.277333c-52.155733 30.037333-89.770667 76.458667-119.671466 117.282133l-1.2288 1.774934a36.386133 36.386133 0 0 1-26.692267 17.646933c-108.407467 12.629333-187.972267 106.154667-181.4528 213.2992 6.5536 107.1104 96.938667 190.634667 206.062933 190.429867H792.917333c68.334933 0 130.730667-38.365867 160.631467-98.781867a173.397333 173.397333 0 0 0-19.797333-185.275733 183.978667 183.978667 0 0 0-42.461867-38.877867 188.791467 188.791467 0 0 0-25.941333-14.404267l-5.768534-2.4576a66.321067 66.321067 0 0 1-20.48-11.537066 56.4224 56.4224 0 0 1-15.9744-27.989334 196.437333 196.437333 0 0 0-34.816-64.6144 449.092267 449.092267 0 0 0-67.584-71.168 301.533867 301.533867 0 0 0-188.689066-65.604266z" fill="#6DB33F" p-id="32954"></path></svg>