<?xml version="1.0" standalone="no"?><!DOCTYPE svg PUBLIC "-//W3C//DTD SVG 1.1//EN" "http://www.w3.org/Graphics/SVG/1.1/DTD/svg11.dtd"><svg t="1628743082756" class="icon" viewBox="0 0 1024 1024" version="1.1" xmlns="http://www.w3.org/2000/svg" p-id="47907" width="32" height="32" xmlns:xlink="http://www.w3.org/1999/xlink"><defs><style type="text/css"></style></defs><path d="M511.18 1018.06C227.739 1016.833 14.337 792.372 6.145 532.686-3.686 224.665 236.339 14.336 490.906 6.144c307.404-9.83 516.505 229.99 526.745 481.485 12.698 306.38-233.472 532.48-506.47 530.432z" fill="#6D9900" p-id="47908"></path><path d="M272.589 512c33.997 20.07 44.646 50.586 48.742 85.197 3.072 26.01 1.639 52.019 2.867 78.029 1.844 38.297 12.084 39.321 39.527 39.321 11.878 0 16.384 3.482 14.54 15.155-0.409 1.844 0 3.687 0 5.735 0 33.587 0 33.587-33.791 32.153-47.514-2.048-73.114-29.286-77.62-76.8-3.276-35.43 1.434-71.065-5.12-106.086-5.324-28.672-16.793-39.936-45.875-41.574-7.373-0.41-10.24-2.663-10.035-9.83 0.41-7.169 0-14.132 0-21.3 0.205-9.011-2.048-19.046 1.229-26.624 3.891-8.806 15.36-2.662 23.347-5.12 14.336-4.3 23.552-13.722 27.853-27.648 3.686-11.674 5.939-23.757 6.144-36.045 0.614-32.153-2.048-64.512 4.915-96.051 9.216-42.598 29.082-59.802 72.704-63.693 36.045-3.277 36.045-3.277 36.045 32.563 0 19.661 0 19.866-18.842 20.276-28.877 0.614-32.768 9.42-35.02 36.864-2.049 25.804 0 52.019-2.868 78.028-3.686 35.43-13.926 66.765-48.742 87.45z m478.617 0.205c-38.092-22.733-46.694-58.573-49.356-98.304-1.434-23.143-1.23-46.285-2.458-69.427-1.229-26.624-8.602-33.997-35.226-35.021-19.046-0.615-19.046-0.615-19.046-20.07v-2.868c0-30.925 0-30.925 31.744-30.105 48.947 1.433 74.752 27.238 79.462 75.776 2.663 27.443 1.434 54.886 2.458 82.124 0.41 13.312 2.867 26.215 6.963 38.708 6.554 19.456 16.999 27.443 37.683 27.648 11.06 0 15.36 3.072 14.336 14.54-1.024 12.288-0.614 24.576-0.204 36.864 0.204 7.783-2.458 10.445-10.445 10.855-28.263 1.229-40.755 13.721-45.67 42.189-4.097 23.142-2.663 46.284-2.868 69.222 0 16.998-1.024 33.997-4.71 50.586-9.421 41.37-29.901 58.777-72.09 62.259-36.864 3.072-35.84 2.867-37.273-33.178-0.615-15.36 3.276-19.865 19.046-19.66 27.648 0.204 34.406-7.988 35.635-35.84 1.229-30.72 0.41-61.44 4.915-91.956 5.12-31.13 17.613-57.139 47.104-74.342z" fill="#FEFEFE" p-id="47909"></path><path d="M635.7 545.997c-19.252 0.205-35.636-15.565-35.636-33.997 0-17.818 16.18-33.997 34.406-34.202 19.252-0.204 35.636 15.565 35.636 34.202 0 18.022-15.975 33.792-34.407 33.997z m-89.908-34.202c0 20.48-13.926 34.407-34.406 34.407-19.252 0-33.792-14.541-33.792-33.588 0-19.456 15.155-34.61 34.61-34.61 19.252 0 33.588 14.335 33.588 33.791zM389.12 545.997c-20.07 0-34.816-14.746-34.611-34.407 0.205-19.25 14.95-33.587 33.997-33.792 19.046 0 35.225 15.975 35.02 34.816-0.204 18.228-15.77 33.383-34.406 33.383z" fill="#FEFEFE" p-id="47910"></path></svg>