<?xml version="1.0" standalone="no"?><!DOCTYPE svg PUBLIC "-//W3C//DTD SVG 1.1//EN" "http://www.w3.org/Graphics/SVG/1.1/DTD/svg11.dtd"><svg t="1628743463867" class="icon" viewBox="0 0 1024 1024" version="1.1" xmlns="http://www.w3.org/2000/svg" p-id="58836" width="32" height="32" xmlns:xlink="http://www.w3.org/1999/xlink"><defs><style type="text/css"></style></defs><path d="M512 0c282.760533 0 512 229.239467 512 512 0 282.760533-229.239467 512-512 512-282.760533 0-512-229.239467-512-512C0 229.239467 229.239467 0 512 0zM273.066667 443.733333a68.266667 68.266667 0 1 0 0 136.533334 68.266667 68.266667 0 0 0 0-136.533334z m238.933333 0a68.266667 68.266667 0 1 0 0 136.533334 68.266667 68.266667 0 0 0 0-136.533334z m238.933333 0a68.266667 68.266667 0 1 0 0 136.533334 68.266667 68.266667 0 0 0 0-136.533334z" fill="#2C3031" p-id="58837"></path></svg>