<?xml version="1.0" standalone="no"?><!DOCTYPE svg PUBLIC "-//W3C//DTD SVG 1.1//EN" "http://www.w3.org/Graphics/SVG/1.1/DTD/svg11.dtd"><svg t="1628742855328" class="icon" viewBox="0 0 1024 1024" version="1.1" xmlns="http://www.w3.org/2000/svg" p-id="40912" width="32" height="32" xmlns:xlink="http://www.w3.org/1999/xlink"><defs><style type="text/css"></style></defs><path d="M 512.1 0 C 229.4 0 0.3 229.1 0.3 511.8 v 0.1 c 0 282.7 229.2 511.8 511.9 511.8 s 511.9 -229.2 511.9 -511.8 v -0.1 C 1024 229.1 794.8 0 512.1 0 Z" fill="#ffffff" p-id="40913"></path><path d="M 718.2 386.3 h 25 v 69.4 h -25 Z M 718.2 341.6 h 25 v 10 h -25 Z M 166.2 309.1 h 25 v 69.4 h -25 Z M 191.3 250.7 h 16.8 v -25 h -16.7 c -3.1 0 -6.4 0.7 -8.5 1.5 h -0.1 c -6.8 2.5 -12.2 8 -14.8 14.8 v 0.1 c -0.7 2 -1.5 5.2 -1.5 8.5 v 23.9 h 25 l -0.2 -23.8 Z M 718.3 600.1 h -35.7 v 25 h 35.6 c 3.1 0 6.4 -0.7 8.5 -1.5 h 0.1 c 6.8 -2.5 12.2 -8 14.8 -14.8 v -0.1 c 0.7 -2 1.5 -5.2 1.5 -8.5 v -12.4 h -25 l 0.2 12.3 Z M 191.5 600.1 v -12.6 h -25 V 600 c 0 3.1 0.7 6.4 1.5 8.5 v 0.1 c 2.5 6.8 8 12.2 14.8 14.8 h 0.1 c 2 0.7 5.2 1.5 8.5 1.5 H 237 v -25 l -45.5 0.2 Z M 718.3 250.6 v 14.1 h 25 v -14 c 0 -3.1 -0.7 -6.4 -1.5 -8.5 v -0.1 c -2.5 -6.8 -8 -12.2 -14.8 -14.8 h -0.1 c -2 -0.7 -5.2 -1.5 -8.5 -1.5 h -45.6 v 25 l 45.5 -0.2 Z M 240.5 225.6 h 61.2 v 25 h -61.2 Z M 718.2 490.3 h 25 v 54 h -25 Z M 544.6 225.6 H 614 v 25 h -69.4 Z M 166.2 413.1 h 25 v 69.4 h -25 Z M 440.5 225.6 h 69.4 v 25 h -69.4 Z M 336.4 225.6 h 69.4 v 25 h -69.4 Z M 589.6 600.1 h 59.1 v 25 h -59.1 Z M 166.2 510.8 h 25 v 55.5 h -25 Z M 485.5 600.1 h 65 v 25 h -65 Z M 299.3 600.1 h 47.4 v 25 h -47.4 Z M 381.4 600.1 h 69.4 v 25 h -69.4 Z M 676.6 744.9 H 390.9 c -6.9 0 -12.5 5.6 -12.5 12.5 s 5.6 12.5 12.5 12.5 h 285.7 c 6.9 0 12.5 -5.6 12.5 -12.5 s -5.6 -12.5 -12.5 -12.5 Z" fill="#7dc5eb" p-id="40914"></path><path d="M 489.4 682.1 c -6.9 0 -12.5 5.6 -12.5 12.5 v 54.2 c 0 6.9 5.6 12.5 12.5 12.5 s 12.5 -5.6 12.5 -12.5 v -54.3 c 0 -6.9 -5.6 -12.4 -12.5 -12.4 Z M 578.2 682.1 c -6.9 0 -12.5 5.6 -12.5 12.5 v 54.2 c 0 6.9 5.6 12.5 12.5 12.5 s 12.5 -5.6 12.5 -12.5 v -54.3 c 0 -6.9 -5.6 -12.4 -12.5 -12.4 Z" fill="#7dc5eb" p-id="40915"></path><path d="M 797.1 297.6 H 270.3 c -13.8 0 -25.1 11.3 -25.1 25.1 V 672 c 0 13.8 11.3 25.1 25.1 25.1 H 797 c 13.8 0 25.1 -11.3 25.1 -25.1 V 322.6 c 0.1 -13.8 -11.2 -25 -25 -25 Z m 2.7 350.6 c 0 12.5 -7.8 26 -24.9 26 H 292.7 c -15.4 0 -25 -11.2 -25 -29.2 V 345.2 c 0 -16.4 8.4 -24.8 25 -24.8 H 774 c 17.3 0 25.8 9.1 25.8 27.8 v 300 Z" fill="#7dc5eb" p-id="40916"></path><path d="M 774 336.5 H 292.7 c -7.6 0 -8.9 1.2 -8.9 8.7 v 299.7 c 0 13.1 6.2 13.1 8.9 13.1 h 482.2 c 7.3 0 8.8 -5.4 8.8 -9.9 V 348.2 c 0 -11.1 -2.5 -11.7 -9.7 -11.7 Z" fill="#7dc5eb" p-id="40917"></path><path d="M 439.4 971.1 l -42.6 -110 h 15.8 l 28.6 79.9 c 2.3 6.4 4.2 12.4 5.8 18 c 1.7 -6 3.7 -12 5.9 -18 l 29.7 -79.9 h 14.9 l -43.1 110 h -15 Z M 522.7 971.1 v -110 h 21.9 l 26 77.9 c 2.4 7.3 4.2 12.7 5.3 16.3 c 1.2 -4 3.2 -9.9 5.9 -17.6 l 26.3 -76.6 h 19.6 v 110 h -14 V 879 l -32 92.1 h -13.1 l -31.8 -93.7 v 93.7 h -14.1 Z" fill="#7dc5eb" p-id="40918"></path></svg>