<?xml version="1.0" standalone="no"?><!DOCTYPE svg PUBLIC "-//W3C//DTD SVG 1.1//EN" "http://www.w3.org/Graphics/SVG/1.1/DTD/svg11.dtd"><svg t="1628742909783" class="icon" viewBox="0 0 1024 1024" version="1.1" xmlns="http://www.w3.org/2000/svg" p-id="42372" width="32" height="32" xmlns:xlink="http://www.w3.org/1999/xlink"><defs><style type="text/css"></style></defs><path d="M1021.525705 644.511913l-0.825985-3.931929a90.779344 90.779344 0 0 0-6.438882-18.59566c-32.805402-74.863634-103.976103-90.913342-157.91112-91.193337h-0.799985c-31.152432 0-63.131848 9.117834-95.045266 27.087506-22.861583 12.876765-38.3913 26.31352-42.989216 30.912436l-72.624675 74.650638c-0.599989 0.55999-1.185978 1.11998-1.759968 1.719969l-1.331976 1.331976-25.781529 25.981526c-0.239996 0.225996-0.399993 0.385993-0.505991 0.465991a3.625934 3.625934 0 0 1-4.665915-1.119979 88.513385 88.513385 0 0 0-10.943801-11.289794L474.302688 573.048216a146.633325 146.633325 0 0 0-95.39226-34.659367H253.498716a90.646346 90.646346 0 0 0-50.46908 15.223722 95.578256 95.578256 0 0 0-52.06705-15.382719H98.560542A96.271244 96.271244 0 0 0 2.409296 634.314099v293.534645A96.271244 96.271244 0 0 0 98.560542 1023.99999h52.402044a95.552257 95.552257 0 0 0 51.988052-15.36972 90.753344 90.753344 0 0 0 50.549078 15.196723H639.957666a125.731706 125.731706 0 0 0 67.358771-19.462645 85.874433 85.874433 0 0 0 17.329684-14.409737l137.0615-148.753286 0.639988-0.599989 126.811687-130.517619 19.515644-18.355666c8.78384-7.864857 12.343775-11.197796 12.809766-35.539351v-2.664952zM776.75517 641.846961l-0.612989 0.639989zM161.786389 927.848744a10.837802 10.837802 0 0 1-10.823803 10.836802H98.560542a10.850802 10.850802 0 0 1-10.837802-10.836802v-293.534645a10.850802 10.850802 0 0 1 10.837802-10.836803h52.402044a10.837802 10.837802 0 0 1 10.823803 10.836803z m756.749195-260.875241L804.281668 786.307326a93.1783 93.1783 0 0 0-3.212941 3.27894L663.900229 938.365552a6.144888 6.144888 0 0 1-1.172979 1.026981 42.657222 42.657222 0 0 1-22.768584 6.664879H253.498716a8.437846 8.437846 0 0 1-7.357866-4.705914 95.752253 95.752253 0 0 0 0.959982-13.476754V634.314099a95.218263 95.218263 0 0 0-0.959982-13.449755 8.411847 8.411847 0 0 1 7.357866-4.705914h125.371713a63.705838 63.705838 0 0 1 41.457243 14.996726L545.899382 738.651195a15.036726 15.036726 0 0 1 1.332975 1.425974 83.621475 83.621475 0 0 0 12.530772 12.329775l-25.593533 26.794512-88.793381-50.655076c-19.235649-10.9838-44.097196-4.91891-55.547986 13.556752s-5.118907 42.351227 14.116742 53.322028l99.24419 56.693965a67.651766 67.651766 0 0 0 33.646386 8.943837 68.398752 68.398752 0 0 0 49.442098-21.274612l114.640909-120.106809 74.862634-76.888597c2.665951-2.359957 39.99127-34.179376 79.675547-34.179376h0.386993c52.988033 0.266995 71.983687 19.995635 81.488513 38.951289z m37.312319-167.534944a42.657222 42.657222 0 0 1-42.577223-40.484261 394.070811 394.070811 0 0 0-784.98368-24.821548 42.657222 42.657222 0 1 1-84.754454-9.677823 479.371255 479.371255 0 0 1 954.94558 30.16645 42.657222 42.657222 0 0 1-40.431263 44.777183c-0.732987 0.026-1.465973 0.039999-2.19996 0.039999z" p-id="42373" fill="#ea9518"></path><path d="M456.840006 488.120766a72.636675 72.636675 0 0 1-58.133939-29.019471l-78.128575-103.884105a42.657222 42.657222 0 0 1 68.184756-51.229065l70.450715 93.659291L659.967301 243.802223a42.657222 42.657222 0 1 1 51.895053 67.718764L498.576245 474.950006l-1.038981 0.706987a72.530677 72.530677 0 0 1-40.697258 12.463773z" p-id="42374" fill="#ea9518"></path></svg>