<?xml version="1.0" standalone="no"?><!DOCTYPE svg PUBLIC "-//W3C//DTD SVG 1.1//EN" "http://www.w3.org/Graphics/SVG/1.1/DTD/svg11.dtd"><svg t="1628741582146" class="icon" viewBox="0 0 1024 1024" version="1.1" xmlns="http://www.w3.org/2000/svg" p-id="13307" id="mx_n_1628741582150" width="32" height="32" xmlns:xlink="http://www.w3.org/1999/xlink"><defs><style type="text/css"></style></defs><path d="M733.6 124.5H291.5l-221 382.8 221 382.8h442.1l221-382.8z" fill="#666666" p-id="13308"></path><path d="M734 134H292L71 516.8l221 382.8h442l221.1-382.8z" fill="#29ABE2" p-id="13309"></path><path d="M511.3 225.5C349.9 225.5 219 356.4 219 517.9s130.9 292.3 292.3 292.3 292.3-130.9 292.3-292.3-130.8-292.4-292.3-292.4z m1.2 564.4c-150.3 0-272.2-121.8-272.2-272.2s121.8-272.2 272.2-272.2 272.2 121.8 272.2 272.2-121.9 272.2-272.2 272.2z" fill="#FFFFFF" p-id="13310"></path><path d="M468.8 602.1l-0.5-0.2c-12-5.1-11.5-29.7-11.3-32.9 0-0.7-1.1-16.3-25.6-50.4-26.4-36.7-19.2-74.7-18.9-76.3 5.1-28 22.7-49.4 51.1-61.9 21.3-9.4 40.8-10.4 41.6-10.5 0.8 0 18.6-0.7 39.7 5.4 28.2 8.2 48.5 24.6 58.9 47.5 10.3 22.9 10 48.3-0.8 73.5-7.8 18-18.2 29.8-19.5 31.3-6.5 9.6-22.5 36.3-19.2 46.4 4.9 15.1-10.1 25.8-10.7 26.2l-0.7 0.5-39.2-1-44.9 2.4z m38-227.3h-1.5c-0.2 0-19.5 1.1-39.9 10.1-27.1 12-43.3 31.6-48.1 58.2-0.1 0.4-7 37.7 18.1 72.5C461.7 552 462 568.3 462 569v0.1c-0.3 6.6 0.6 24.2 7.8 28l43.8-2.5h0.1l37.6 1c2.5-2 11.5-9.9 8.2-20.1-4.6-14.3 17.4-47.2 19.9-50.9l0.2-0.3c0.1-0.1 11-12 18.8-30.1 10.3-24.2 10.6-47.5 0.8-69.3-21.7-48-82-50.1-92.4-50.1zM552.8 632.6h-81.3c-5.7 0-10.3-4.6-10.3-10.3s4.6-10.3 10.3-10.3h81.3c5.7 0 10.3 4.6 10.3 10.3s-4.6 10.3-10.3 10.3zM471.5 617c-2.9 0-5.3 2.4-5.3 5.3s2.4 5.3 5.3 5.3h81.3c2.9 0 5.3-2.4 5.3-5.3s-2.4-5.3-5.3-5.3h-81.3zM552.8 660.1h-81.3c-5.7 0-10.3-4.6-10.3-10.3s4.6-10.3 10.3-10.3h81.3c5.7 0 10.3 4.6 10.3 10.3s-4.6 10.3-10.3 10.3z m-81.3-15.6c-2.9 0-5.3 2.4-5.3 5.3s2.4 5.3 5.3 5.3h81.3c2.9 0 5.3-2.4 5.3-5.3s-2.4-5.3-5.3-5.3h-81.3zM542.8 686.1h-61.6c-5.7 0-10.3-4.6-10.3-10.3s4.6-10.3 10.3-10.3h61.6c5.7 0 10.3 4.6 10.3 10.3s-4.6 10.3-10.3 10.3z m-61.6-15.6c-2.9 0-5.3 2.4-5.3 5.3s2.4 5.3 5.3 5.3h61.6c2.9 0 5.3-2.4 5.3-5.3s-2.4-5.3-5.3-5.3h-61.6zM497.3 720.3l-17.5-26.8h66.3l-18.9 26.1-29.9 0.7z m-8.3-21.8l10.9 16.8 24.7-0.6 11.7-16.1H489z" fill="#FFFFFF" p-id="13311"></path><path d="M550.1 466.6c-56.6 14.3-42.2 69.3-42.2 69.3 1.9-6.2 18.9-47.5 31.1-49.7-15 7-28.2 54.2-28.2 54.2l0.5 58.7h5.8s0.5-40.8-1.2-48.8c1.4-12.8 6.3-14.4 6.3-14.4 49.4-27.1 27.9-69.3 27.9-69.3z" fill="#FFFFFF" p-id="13312"></path><path d="M471.2 487.9c-2.7 23.4 17.3 45.4 35 45-6.7-15.3 0-34.9 0-34.9-0.8-3.8-23.8-14.4-35-10.1z" fill="#FFFFFF" p-id="13313"></path><path d="M512.5 349h0.5c1.8 0 3.3-1.5 3.3-3.3v-44.8c0-1.8-1.5-3.3-3.3-3.3h-0.5c-1.8 0-3.3 1.5-3.3 3.3v44.8c0.1 1.9 1.5 3.3 3.3 3.3z" fill="#FFFFFF" p-id="13314"></path><path d="M437 369l0.4-0.3c1.4-1.2 1.6-3.2 0.4-4.6l-28.9-34.3c-1.2-1.4-3.2-1.6-4.6-0.4l-0.4 0.3c-1.4 1.2-1.6 3.2-0.4 4.6l28.9 34.3c1.2 1.4 3.2 1.6 4.6 0.4z" fill="#FFFFFF" p-id="13315"></path><path d="M371.3 444.2l0.3-0.4c1.2-1.4 1-3.4-0.4-4.6l-34.1-29.1c-1.4-1.2-3.4-1-4.6 0.4l-0.3 0.4c-1.2 1.4-1 3.4 0.4 4.6l34.1 29.1c1.4 1.1 3.5 1 4.6-0.4z" fill="#FFFFFF" p-id="13316"></path><path d="M583.9 369.3l0.4 0.4c1.3 1.3 3.4 1.3 4.6 0l31.7-31.7c1.3-1.3 1.3-3.4 0-4.6l-0.4-0.4c-1.3-1.3-3.4-1.3-4.6 0l-31.7 31.7c-1.2 1.3-1.2 3.4 0 4.6z" fill="#FFFFFF" p-id="13317"></path><path d="M649 440.9l0.3 0.4c1.2 1.4 3.2 1.6 4.6 0.4l34.3-28.9c1.4-1.2 1.6-3.2 0.4-4.6l-0.3-0.4c-1.2-1.4-3.2-1.6-4.6-0.4l-34.3 28.9c-1.4 1.1-1.6 3.2-0.4 4.6z" fill="#FFFFFF" p-id="13318"></path></svg>